<mxfile host="app.diagrams.net" modified="2024-03-28T04:30:15.547Z" agent="Mozilla/5.0 (Windows NT 10.0; Win64; x64) AppleWebKit/537.36 (KHTML, like Gecko) Chrome/123.0.0.0 Safari/537.36" etag="y3gB5MbZOlGw9tQeFhNs" version="24.2.0" type="github">
  <diagram id="C5RBs43oDa-KdzZeNtuy" name="Page-1">
    <mxGraphModel dx="1034" dy="412" grid="1" gridSize="10" guides="1" tooltips="1" connect="1" arrows="1" fold="1" page="1" pageScale="1" pageWidth="827" pageHeight="1169" math="0" shadow="0">
      <root>
        <mxCell id="WIyWlLk6GJQsqaUBKTNV-0" />
        <mxCell id="WIyWlLk6GJQsqaUBKTNV-1" parent="WIyWlLk6GJQsqaUBKTNV-0" />
        <mxCell id="Cawlr3eK_shqADB--AHX-6" style="edgeStyle=orthogonalEdgeStyle;rounded=0;orthogonalLoop=1;jettySize=auto;html=1;entryX=0;entryY=0.75;entryDx=0;entryDy=0;" edge="1" parent="WIyWlLk6GJQsqaUBKTNV-1" source="Cawlr3eK_shqADB--AHX-0" target="Cawlr3eK_shqADB--AHX-2">
          <mxGeometry relative="1" as="geometry" />
        </mxCell>
        <mxCell id="Cawlr3eK_shqADB--AHX-0" value="weather data" style="shape=cylinder3;whiteSpace=wrap;html=1;boundedLbl=1;backgroundOutline=1;size=15;" vertex="1" parent="WIyWlLk6GJQsqaUBKTNV-1">
          <mxGeometry x="60" y="192" width="60" height="80" as="geometry" />
        </mxCell>
        <mxCell id="Cawlr3eK_shqADB--AHX-20" style="edgeStyle=orthogonalEdgeStyle;rounded=0;orthogonalLoop=1;jettySize=auto;html=1;entryX=0;entryY=0.5;entryDx=0;entryDy=0;" edge="1" parent="WIyWlLk6GJQsqaUBKTNV-1">
          <mxGeometry relative="1" as="geometry">
            <mxPoint x="550" y="138" as="sourcePoint" />
            <mxPoint x="680" y="48" as="targetPoint" />
            <Array as="points">
              <mxPoint x="615" y="138" />
              <mxPoint x="615" y="48" />
            </Array>
          </mxGeometry>
        </mxCell>
        <mxCell id="Cawlr3eK_shqADB--AHX-1" value="aggregation and manipulati&lt;span style=&quot;background-color: initial;&quot;&gt;on&lt;/span&gt;" style="rounded=0;whiteSpace=wrap;html=1;" vertex="1" parent="WIyWlLk6GJQsqaUBKTNV-1">
          <mxGeometry x="430" y="122" width="120" height="60" as="geometry" />
        </mxCell>
        <mxCell id="Cawlr3eK_shqADB--AHX-7" style="edgeStyle=orthogonalEdgeStyle;rounded=0;orthogonalLoop=1;jettySize=auto;html=1;entryX=0;entryY=0.5;entryDx=0;entryDy=0;" edge="1" parent="WIyWlLk6GJQsqaUBKTNV-1" source="Cawlr3eK_shqADB--AHX-2" target="Cawlr3eK_shqADB--AHX-1">
          <mxGeometry relative="1" as="geometry" />
        </mxCell>
        <mxCell id="Cawlr3eK_shqADB--AHX-2" value="merged data on customer id" style="rounded=0;whiteSpace=wrap;html=1;" vertex="1" parent="WIyWlLk6GJQsqaUBKTNV-1">
          <mxGeometry x="260" y="122" width="120" height="60" as="geometry" />
        </mxCell>
        <mxCell id="Cawlr3eK_shqADB--AHX-5" style="edgeStyle=orthogonalEdgeStyle;rounded=0;orthogonalLoop=1;jettySize=auto;html=1;entryX=0;entryY=0.5;entryDx=0;entryDy=0;" edge="1" parent="WIyWlLk6GJQsqaUBKTNV-1" source="Cawlr3eK_shqADB--AHX-3" target="Cawlr3eK_shqADB--AHX-2">
          <mxGeometry relative="1" as="geometry">
            <mxPoint x="240" y="182" as="targetPoint" />
          </mxGeometry>
        </mxCell>
        <mxCell id="Cawlr3eK_shqADB--AHX-3" value="users data" style="shape=cylinder3;whiteSpace=wrap;html=1;boundedLbl=1;backgroundOutline=1;size=15;" vertex="1" parent="WIyWlLk6GJQsqaUBKTNV-1">
          <mxGeometry x="60" y="62" width="60" height="80" as="geometry" />
        </mxCell>
        <mxCell id="Cawlr3eK_shqADB--AHX-13" style="edgeStyle=orthogonalEdgeStyle;rounded=0;orthogonalLoop=1;jettySize=auto;html=1;entryX=0;entryY=0.5;entryDx=0;entryDy=0;" edge="1" parent="WIyWlLk6GJQsqaUBKTNV-1" source="Cawlr3eK_shqADB--AHX-1" target="Cawlr3eK_shqADB--AHX-14">
          <mxGeometry relative="1" as="geometry">
            <mxPoint x="667.3399999999999" y="170.65999999999997" as="targetPoint" />
          </mxGeometry>
        </mxCell>
        <mxCell id="Cawlr3eK_shqADB--AHX-14" value="Data Storage" style="swimlane;whiteSpace=wrap;html=1;" vertex="1" parent="WIyWlLk6GJQsqaUBKTNV-1">
          <mxGeometry x="680" y="103" width="110" height="98" as="geometry" />
        </mxCell>
        <mxCell id="Cawlr3eK_shqADB--AHX-15" value="RDBMS - SQLite" style="text;html=1;align=center;verticalAlign=middle;resizable=0;points=[];autosize=1;strokeColor=none;fillColor=none;" vertex="1" parent="WIyWlLk6GJQsqaUBKTNV-1">
          <mxGeometry x="675" y="148" width="110" height="30" as="geometry" />
        </mxCell>
        <mxCell id="Cawlr3eK_shqADB--AHX-18" value="&lt;b&gt;Data Visualization - &lt;/b&gt;Monthly/Quaterly Sales trend" style="rounded=0;whiteSpace=wrap;html=1;" vertex="1" parent="WIyWlLk6GJQsqaUBKTNV-1">
          <mxGeometry x="680" y="10" width="120" height="60" as="geometry" />
        </mxCell>
      </root>
    </mxGraphModel>
  </diagram>
</mxfile>
